PathFileType	4	(X/Y/Z)	C:\Users\WrightLab\Desktop\Jo\P5V22.trc
DataRate	CameraRate	NumFrames	NumMarkers	Units	OrigDataRate	OrigDataStartFrame	OrigNumFrames
100.00	100.00	      9	19	mm	100.00	828	      1103
Frame#	Time	Headset_Front			Headset_Back			Headset_Left			Headset_Right			Left_Shoulder			Right_Shoulder			Sternum			C7			Left Elbow			Right Elbow			Left Wrist			Right Wrist			Left ASIS			Right ASIS			S2			Left Knee			Right Knee			Left Ankle			Right Ankle			
		X1	Y1	Z1	X2	Y2	Z2	X3	Y3	Z3	X4	Y4	Z4	X5	Y5	Z5	X6	Y6	Z6	X7	Y7	Z7	X8	Y8	Z8	X9	Y9	Z9	X10	Y10	Z10	X11	Y11	Z11	X12	Y12	Z12	X13	Y13	Z13	X14	Y14	Z14	X15	Y15	Z15	X16	Y16	Z16	X17	Y17	Z17	X18	Y18	Z18	X19	Y19	Z19	

828	8.270	-88.31895	1427.05396	50.27327	-204.79541	1523.03760	41.65274							12.95254	1485.11316	-273.40250				-150.15172	1295.93176	-124.50744	-235.06601	1541.29883	-265.30237	9.03779	1289.63440	-165.94446	-343.86588	1239.72314	93.80210	59.88657	1221.99963	-351.07379	-167.57886	1127.60645	235.83575	-68.41328	912.61444	-186.34857	-327.02588	955.11139	-85.34570	-261.07785	1001.07745	-374.10016	-61.30101	493.54816	-169.95454	-429.17349	514.92975	-113.84622	-111.34585	91.19080	-249.91905	-472.55569	118.71856	-221.03459	
829	8.280	-92.76978	1427.77344	51.75579	-209.10847	1523.88989	40.75425							14.18827	1484.66479	-269.06116				-151.92209	1296.73645	-124.47617	-233.84613	1541.45752	-266.80215	8.04689	1289.76282	-162.62976	-352.87827	1241.76636	90.66672	63.99243	1221.78687	-347.89804	-182.72302	1128.52808	238.74779	-69.51763	912.64777	-183.19742	-328.99026	955.97241	-87.54883	-258.10641	1000.95746	-372.98975	-61.74590	493.92041	-166.40424	-429.72565	514.61127	-115.10899	-111.30646	91.21594	-249.90833	-470.12778	117.71821	-217.11749	
830	8.290	-97.70962	1428.81995	53.13309	-213.63730	1524.78931	39.43052							15.42263	1484.80811	-265.51419				-153.08533	1297.11426	-124.31226	-232.31178	1542.07874	-268.83374	7.25485	1289.68018	-159.12953	-361.88742	1243.47388	87.33812	66.42048	1222.39612	-343.82623	-197.06511	1128.59290	239.45874	-70.79636	912.46942	-180.81485	-330.86942	956.87286	-88.59882	-256.14456	1001.04340	-373.12656	-62.76414	494.46048	-162.82457	-431.41687	514.53021	-116.70901	-111.27184	91.23547	-249.90031	-467.71240	116.93005	-213.83121	
831	8.300	-103.11420	1429.74841	54.83202	-219.03023	1525.81531	38.77695							16.24641	1484.90723	-262.11285				-155.18939	1298.14868	-123.43520	-231.15854	1542.26587	-270.35480	5.67590	1289.23523	-156.03401	-370.62799	1245.61658	83.34772	69.30948	1223.13208	-340.31564	-211.99677	1129.06177	241.33446	-70.32478	913.06494	-177.44928	-331.86804	957.15204	-89.47253	-252.19888	1001.25580	-373.36395	-63.48105	494.59561	-160.22815	-432.71130	515.34790	-117.18758	-111.25618	91.25258	-249.89209	-465.59430	115.98296	-211.12450	
832	8.310	-108.70541	1430.67139	56.02253	-223.91483	1526.65112	37.21635							17.18342	1485.27881	-258.65442				-157.26743	1298.57764	-122.61189	-229.74614	1542.66748	-271.63968	5.19764	1289.97717	-152.83122	-380.39816	1247.37817	79.99226	71.87952	1223.30322	-336.49176	-227.19931	1129.59363	242.64548	-71.21082	913.78955	-175.18002	-333.53818	957.41333	-90.60484	-249.07565	1000.59454	-372.54434	-65.23254	494.47275	-157.19456	-433.91165	516.39648	-118.63269	-111.23571	91.25257	-249.89377	-462.69440	114.48791	-207.52248	
833	8.320	-114.18340	1431.71716	56.63284	-229.00360	1527.52173	35.71861							17.91887	1485.33435	-255.49007				-159.24402	1299.32922	-122.14468	-228.60608	1542.70996	-272.68060	3.47549	1289.69263	-150.13478	-388.92371	1249.00281	77.36819	72.61599	1222.88220	-329.88614	-241.74805	1130.25232	243.54193	-71.32506	913.69879	-172.35736	-335.97137	958.16473	-91.62644	-246.40067	1000.87238	-372.13016	-66.32919	495.05157	-154.44817	-435.32626	516.06433	-119.88799	-111.02303	91.24567	-249.69719	-460.31299	113.97350	-204.47192	
834	8.330	-119.95443	1432.74573	57.44839	-234.24237	1528.72717	33.91196							18.08385	1485.62158	-253.25769	-327.63419	1473.26904	-75.24961	-161.18860	1300.09790	-121.63198	-227.92548	1542.97876	-274.42255	2.28210	1289.41479	-147.66382	-397.06299	1250.36682	73.68197	73.89800	1223.37036	-325.19550	-256.85205	1130.75830	244.38783	-72.22673	914.05908	-170.13652	-338.12430	958.44238	-92.66274	-243.84064	1000.99518	-372.50656	-67.35385	495.31635	-150.86101	-437.15427	516.63013	-121.39481	-111.00437	91.24480	-249.69919	-458.01135	113.46129	-201.10463	
835	8.340	-125.96901	1433.84375	58.42032	-241.11884	1530.02112	32.41151							18.73293	1485.98804	-250.37347	-330.39862	1474.55615	-78.01424	-163.56245	1300.80627	-120.11491	-226.82645	1543.09143	-276.59326	1.05895	1290.01904	-144.84926	-405.50607	1251.99536	68.72717	75.54105	1223.01196	-320.56198	-272.23074	1132.44214	243.11838	-73.38404	914.35803	-167.71391	-339.18173	958.82849	-93.11703	-241.87999	1000.88013	-372.46765	-69.14996	495.28778	-147.60416	-438.47638	516.89948	-123.16770	-110.99312	91.22981	-249.70842	-456.40475	112.83320	-198.18535	
836	8.350	-131.60326	1434.37561	59.12702	-245.24568	1530.67883	30.45648							19.04548	1486.16846	-247.19052	-332.21280	1474.63440	-80.88206	-165.15344	1301.59827	-119.66929	-226.56403	1542.77344	-277.52420	-0.60425	1289.84143	-142.09500	-415.00906	1253.32751	63.26810	77.85085	1223.07605	-315.93445	-287.32944	1133.09338	243.58350	-74.34337	914.65076	-165.70509	-340.65158	959.08911	-93.77245	-239.95749	1001.30133	-372.24570	-70.33997	495.87238	-145.20448	-439.97794	517.80963	-124.99474	-110.74867	90.91476	-249.52914	-454.50378	111.76975	-194.73917	
